<svg viewBox="0 0 18 18" fill="none" xmlns="http://www.w3.org/2000/svg">
<path d="M13.25 2H4.75C3.233 2 2 3.233 2 4.75V13.25C2 14.767 3.233 16 4.75 16H13.25C14.767 16 16 14.767 16 13.25V4.75C16 3.233 14.767 2 13.25 2ZM6.28 12.78C6.134 12.926 5.942 13 5.75 13C5.558 13 5.366 12.927 5.22 12.78C4.927 12.487 4.927 12.012 5.22 11.719L7.19 9.749L5.22 7.779C4.927 7.486 4.927 7.011 5.22 6.718C5.513 6.425 5.988 6.425 6.281 6.718L8.781 9.218C9.074 9.511 9.074 9.986 8.781 10.279L6.281 12.779L6.28 12.78ZM12.25 13H9.75C9.336 13 9 12.664 9 12.25C9 11.836 9.336 11.5 9.75 11.5H12.25C12.664 11.5 13 11.836 13 12.25C13 12.664 12.664 13 12.25 13Z" fill="currentColor"/>
</svg>
