<svg viewBox="0 0 18 18" fill="none" xmlns="http://www.w3.org/2000/svg">
<path d="M5.24975 13.2508C5.05775 13.2508 4.86575 13.1778 4.71975 13.0308L1.21975 9.53075C0.92675 9.23775 0.92675 8.76275 1.21975 8.46975L4.71975 4.96975C5.01275 4.67675 5.48775 4.67675 5.78075 4.96975C6.07375 5.26275 6.07375 5.73775 5.78075 6.03075L2.81075 9.00075L5.78075 11.9708C6.07375 12.2638 6.07375 12.7388 5.78075 13.0318C5.63475 13.1778 5.44275 13.2518 5.25075 13.2518L5.24975 13.2508Z" fill="currentColor"/>
<path d="M12.7497 13.2478C12.5577 13.2478 12.3658 13.1748 12.2198 13.0278C11.9268 12.7348 11.9268 12.2598 12.2198 11.9668L15.1897 8.99684L12.2198 6.02684C11.9268 5.73384 11.9268 5.25884 12.2198 4.96584C12.5128 4.67284 12.9877 4.67284 13.2807 4.96584L16.7807 8.46584C17.0737 8.75884 17.0737 9.23384 16.7807 9.52684L13.2807 13.0268C13.1347 13.1728 12.9428 13.2468 12.7508 13.2468L12.7497 13.2478Z" fill="currentColor"/>
<path d="M7.50164 15.9997C7.44264 15.9997 7.38464 15.9937 7.32564 15.9787C6.92264 15.8817 6.67464 15.4767 6.77064 15.0747L9.77164 2.57474C9.86964 2.17074 10.2796 1.92674 10.6756 2.01974C11.0786 2.11674 11.3266 2.52174 11.2306 2.92374L8.23064 15.4237C8.14764 15.7677 7.84064 15.9987 7.50164 15.9987V15.9997Z" fill="currentColor"/>
</svg>
