<svg viewBox="0 0 18 18" fill="none" xmlns="http://www.w3.org/2000/svg">
<path d="M8 12.5H2.75C2.336 12.5 2 12.164 2 11.75C2 11.336 2.336 11 2.75 11H8C8.414 11 8.75 11.336 8.75 11.75C8.75 12.164 8.414 12.5 8 12.5Z" fill="currentColor"/>
<path d="M15.205 8.5H2.75C2.336 8.5 2 8.164 2 7.75C2 7.336 2.336 7 2.75 7H15.205C15.619 7 15.955 7.336 15.955 7.75C15.955 8.164 15.619 8.5 15.205 8.5Z" fill="currentColor"/>
<path d="M15.25 4.5H2.75C2.336 4.5 2 4.164 2 3.75C2 3.336 2.336 3 2.75 3H15.25C15.664 3 16 3.336 16 3.75C16 4.164 15.664 4.5 15.25 4.5Z" fill="currentColor"/>
<path d="M16.4871 12.5381L14.5926 11.9072L13.9613 10.0127C13.8592 9.707 13.5726 9.5 13.2499 9.5C12.9272 9.5 12.6405 9.707 12.5385 10.0127L11.9072 11.9072L10.0127 12.5381C9.7065 12.6406 9.5 12.9268 9.5 13.25C9.5 13.5732 9.7065 13.8594 10.0127 13.9619L11.9072 14.5928L12.5385 16.4873C12.6406 16.793 12.9272 17 13.2499 17C13.5726 17 13.8593 16.793 13.9613 16.4873L14.5926 14.5928L16.4871 13.9619C16.7933 13.8594 16.9998 13.5732 16.9998 13.25C16.9998 12.9268 16.7933 12.6406 16.4871 12.5381Z" fill="currentColor"/>
</svg>
