<svg viewBox="0 0 18 18" fill="none" xmlns="http://www.w3.org/2000/svg">
<path fill-rule="evenodd" clip-rule="evenodd" d="M11.1083 11.1064C11.4012 10.8135 11.876 10.8135 12.1689 11.1064L16.2803 15.2178C16.5732 15.5107 16.5732 15.9855 16.2803 16.2784C15.9874 16.5713 15.5126 16.5713 15.2197 16.2784L11.1083 12.167C10.8154 11.8741 10.8154 11.3993 11.1083 11.1064Z" fill="currentColor"/>
<path fill-rule="evenodd" clip-rule="evenodd" d="M1.5 7.75C1.5 4.29829 4.29829 1.5 7.75 1.5C11.2017 1.5 14 4.29829 14 7.75C14 11.2017 11.2017 14 7.75 14C4.29829 14 1.5 11.2017 1.5 7.75ZM7.75 3C5.12671 3 3 5.12671 3 7.75C3 10.3733 5.12671 12.5 7.75 12.5C10.3733 12.5 12.5 10.3733 12.5 7.75C12.5 5.12671 10.3733 3 7.75 3Z" fill="currentColor"/>
</svg>
