<svg viewBox="0 0 18 18" fill="none" xmlns="http://www.w3.org/2000/svg">
<path d="M11.35 1.56754C10.95 1.34854 10.461 1.36454 10.077 1.61154L4.782 5.00054H2.25C1.009 5.00054 0 6.00954 0 7.25054V10.7505C0 11.9915 1.009 13.0005 2.25 13.0005H4.781L10.076 16.3895C10.281 16.5205 10.515 16.5875 10.751 16.5875C10.957 16.5875 11.163 16.5365 11.35 16.4345C11.751 16.2155 12 15.7945 12 15.3375V2.66454C12 2.20754 11.751 1.78754 11.35 1.56754Z" fill="#F7F7F7"/>
<path d="M14.4448 7.05569C14.1518 6.76269 13.6758 6.76269 13.3838 7.05569C13.0908 7.34869 13.0908 7.82369 13.3838 8.11669C13.6198 8.35269 13.7498 8.66669 13.7498 9.00069C13.7498 9.33469 13.6198 9.64769 13.3838 9.88469C13.0908 10.1767 13.0908 10.6527 13.3838 10.9457C13.5298 11.0917 13.7218 11.1657 13.9138 11.1657C14.1058 11.1657 14.2978 11.0927 14.4438 10.9457C14.9638 10.4267 15.2498 9.73669 15.2498 9.00169C15.2498 8.26669 14.9638 7.57669 14.4438 7.05769L14.4448 7.05569Z" fill="#F7F7F7"/>
<path d="M15.3291 5.11328C15.0361 5.40628 15.0361 5.88128 15.3291 6.17428C16.8891 7.73428 16.8891 10.2723 15.3291 11.8313C15.0361 12.1243 15.0361 12.5993 15.3291 12.8923C15.4751 13.0383 15.6671 13.1123 15.8591 13.1123C16.0511 13.1123 16.2431 13.0393 16.3891 12.8923C17.4281 11.8533 18.0001 10.4723 18.0001 9.00328C18.0001 7.53428 17.4281 6.15228 16.3891 5.11428C16.0961 4.82128 15.6211 4.82128 15.3281 5.11428L15.3291 5.11328Z" fill="#F7F7F7"/>
</svg>
